<mxfile host="app.diagrams.net" modified="2022-08-10T06:25:07.913Z" agent="5.0 (Windows)" etag="z_1LPt1fewu_OaxPINDV" version="20.2.3" type="github">
  <diagram id="FOEr-PiWBW3Wtw5dugje" name="第 1 页">
    <mxGraphModel dx="1422" dy="752" grid="1" gridSize="10" guides="1" tooltips="1" connect="1" arrows="1" fold="1" page="1" pageScale="1" pageWidth="827" pageHeight="1169" math="0" shadow="0">
      <root>
        <mxCell id="0" />
        <mxCell id="1" parent="0" />
        <mxCell id="RuW9NPai-BHSLDhjQ_9W-2" style="edgeStyle=orthogonalEdgeStyle;rounded=0;orthogonalLoop=1;jettySize=auto;html=1;entryX=0.5;entryY=0;entryDx=0;entryDy=0;" edge="1" parent="1" source="RuW9NPai-BHSLDhjQ_9W-3" target="RuW9NPai-BHSLDhjQ_9W-14">
          <mxGeometry relative="1" as="geometry">
            <Array as="points">
              <mxPoint x="640" y="350" />
              <mxPoint x="640" y="300" />
              <mxPoint x="324" y="300" />
            </Array>
          </mxGeometry>
        </mxCell>
        <mxCell id="RuW9NPai-BHSLDhjQ_9W-3" value="FW debug" style="rounded=1;whiteSpace=wrap;html=1;" vertex="1" parent="1">
          <mxGeometry x="490" y="330" width="120" height="40" as="geometry" />
        </mxCell>
        <mxCell id="RuW9NPai-BHSLDhjQ_9W-4" value="DQA Check N FW" style="rounded=1;whiteSpace=wrap;html=1;" vertex="1" parent="1">
          <mxGeometry x="400" y="210" width="120" height="60" as="geometry" />
        </mxCell>
        <mxCell id="RuW9NPai-BHSLDhjQ_9W-5" value="&lt;div&gt;Monday&lt;br&gt;&lt;/div&gt;" style="rounded=1;whiteSpace=wrap;html=1;" vertex="1" parent="1">
          <mxGeometry x="140" y="60" width="120" height="60" as="geometry" />
        </mxCell>
        <mxCell id="RuW9NPai-BHSLDhjQ_9W-6" value="Tuesday " style="rounded=1;whiteSpace=wrap;html=1;" vertex="1" parent="1">
          <mxGeometry x="270" y="60" width="120" height="60" as="geometry" />
        </mxCell>
        <mxCell id="RuW9NPai-BHSLDhjQ_9W-7" value="Wednesday" style="rounded=1;whiteSpace=wrap;html=1;" vertex="1" parent="1">
          <mxGeometry x="400" y="60" width="120" height="60" as="geometry" />
        </mxCell>
        <mxCell id="RuW9NPai-BHSLDhjQ_9W-8" value="Thursday " style="rounded=1;whiteSpace=wrap;html=1;" vertex="1" parent="1">
          <mxGeometry x="530" y="60" width="120" height="60" as="geometry" />
        </mxCell>
        <mxCell id="RuW9NPai-BHSLDhjQ_9W-9" value="&lt;div&gt;Friday&lt;/div&gt;" style="rounded=1;whiteSpace=wrap;html=1;" vertex="1" parent="1">
          <mxGeometry x="660" y="60" width="120" height="60" as="geometry" />
        </mxCell>
        <mxCell id="RuW9NPai-BHSLDhjQ_9W-10" value="Debug N FW" style="rounded=1;whiteSpace=wrap;html=1;" vertex="1" parent="1">
          <mxGeometry x="530" y="140" width="120" height="60" as="geometry" />
        </mxCell>
        <mxCell id="RuW9NPai-BHSLDhjQ_9W-11" style="edgeStyle=orthogonalEdgeStyle;rounded=0;orthogonalLoop=1;jettySize=auto;html=1;entryX=0;entryY=0.5;entryDx=0;entryDy=0;" edge="1" parent="1" source="RuW9NPai-BHSLDhjQ_9W-12" target="RuW9NPai-BHSLDhjQ_9W-14">
          <mxGeometry relative="1" as="geometry" />
        </mxCell>
        <mxCell id="RuW9NPai-BHSLDhjQ_9W-12" value="FW release" style="rounded=1;whiteSpace=wrap;html=1;" vertex="1" parent="1">
          <mxGeometry x="110" y="390" width="120" height="60" as="geometry" />
        </mxCell>
        <mxCell id="RuW9NPai-BHSLDhjQ_9W-13" style="edgeStyle=orthogonalEdgeStyle;rounded=0;orthogonalLoop=1;jettySize=auto;html=1;entryX=0;entryY=0.5;entryDx=0;entryDy=0;" edge="1" parent="1" source="RuW9NPai-BHSLDhjQ_9W-14" target="RuW9NPai-BHSLDhjQ_9W-18">
          <mxGeometry relative="1" as="geometry" />
        </mxCell>
        <mxCell id="RuW9NPai-BHSLDhjQ_9W-14" value="DQA Check FW" style="rounded=1;whiteSpace=wrap;html=1;" vertex="1" parent="1">
          <mxGeometry x="264" y="390" width="120" height="60" as="geometry" />
        </mxCell>
        <mxCell id="RuW9NPai-BHSLDhjQ_9W-15" value="DQA Check N FW" style="rounded=1;whiteSpace=wrap;html=1;" vertex="1" parent="1">
          <mxGeometry x="530" y="210" width="120" height="60" as="geometry" />
        </mxCell>
        <mxCell id="RuW9NPai-BHSLDhjQ_9W-16" value="Issue happen" style="edgeStyle=orthogonalEdgeStyle;rounded=0;orthogonalLoop=1;jettySize=auto;html=1;entryX=0;entryY=0.5;entryDx=0;entryDy=0;" edge="1" parent="1" source="RuW9NPai-BHSLDhjQ_9W-18" target="RuW9NPai-BHSLDhjQ_9W-3">
          <mxGeometry x="0.2219" y="18" relative="1" as="geometry">
            <Array as="points">
              <mxPoint x="445" y="350" />
            </Array>
            <mxPoint x="-15" y="8" as="offset" />
          </mxGeometry>
        </mxCell>
        <mxCell id="RuW9NPai-BHSLDhjQ_9W-17" value="Pass" style="edgeStyle=orthogonalEdgeStyle;rounded=0;orthogonalLoop=1;jettySize=auto;html=1;" edge="1" parent="1" source="RuW9NPai-BHSLDhjQ_9W-18" target="RuW9NPai-BHSLDhjQ_9W-20">
          <mxGeometry y="20" relative="1" as="geometry">
            <mxPoint as="offset" />
          </mxGeometry>
        </mxCell>
        <mxCell id="RuW9NPai-BHSLDhjQ_9W-18" value="" style="rhombus;whiteSpace=wrap;html=1;" vertex="1" parent="1">
          <mxGeometry x="430" y="405" width="30" height="30" as="geometry" />
        </mxCell>
        <mxCell id="RuW9NPai-BHSLDhjQ_9W-19" style="edgeStyle=orthogonalEdgeStyle;rounded=0;orthogonalLoop=1;jettySize=auto;html=1;entryX=0;entryY=0.5;entryDx=0;entryDy=0;" edge="1" parent="1" source="RuW9NPai-BHSLDhjQ_9W-20" target="RuW9NPai-BHSLDhjQ_9W-22">
          <mxGeometry relative="1" as="geometry" />
        </mxCell>
        <mxCell id="RuW9NPai-BHSLDhjQ_9W-20" value="Release to customer" style="rounded=1;whiteSpace=wrap;html=1;" vertex="1" parent="1">
          <mxGeometry x="500" y="390" width="110" height="60" as="geometry" />
        </mxCell>
        <mxCell id="RuW9NPai-BHSLDhjQ_9W-21" style="edgeStyle=orthogonalEdgeStyle;rounded=0;orthogonalLoop=1;jettySize=auto;html=1;entryX=0;entryY=0.5;entryDx=0;entryDy=0;" edge="1" parent="1" source="RuW9NPai-BHSLDhjQ_9W-22" target="RuW9NPai-BHSLDhjQ_9W-26">
          <mxGeometry relative="1" as="geometry" />
        </mxCell>
        <mxCell id="RuW9NPai-BHSLDhjQ_9W-22" value="&lt;div&gt;Customer&lt;/div&gt;&lt;div&gt;Feedback&lt;br&gt;&lt;/div&gt;" style="rounded=1;whiteSpace=wrap;html=1;" vertex="1" parent="1">
          <mxGeometry x="650" y="390" width="110" height="60" as="geometry" />
        </mxCell>
        <mxCell id="RuW9NPai-BHSLDhjQ_9W-23" style="edgeStyle=orthogonalEdgeStyle;rounded=0;orthogonalLoop=1;jettySize=auto;html=1;entryX=0.5;entryY=0;entryDx=0;entryDy=0;" edge="1" parent="1" source="RuW9NPai-BHSLDhjQ_9W-24" target="RuW9NPai-BHSLDhjQ_9W-12">
          <mxGeometry relative="1" as="geometry" />
        </mxCell>
        <mxCell id="RuW9NPai-BHSLDhjQ_9W-24" value="&lt;div&gt;FW develop&lt;/div&gt;&lt;div&gt;Follow check list&lt;/div&gt;" style="rounded=1;whiteSpace=wrap;html=1;" vertex="1" parent="1">
          <mxGeometry x="110" y="300" width="120" height="60" as="geometry" />
        </mxCell>
        <mxCell id="RuW9NPai-BHSLDhjQ_9W-25" style="edgeStyle=orthogonalEdgeStyle;rounded=0;orthogonalLoop=1;jettySize=auto;html=1;entryX=0;entryY=0.5;entryDx=0;entryDy=0;" edge="1" parent="1" source="RuW9NPai-BHSLDhjQ_9W-26" target="RuW9NPai-BHSLDhjQ_9W-29">
          <mxGeometry relative="1" as="geometry" />
        </mxCell>
        <mxCell id="RuW9NPai-BHSLDhjQ_9W-26" value="DQA check issue" style="rounded=1;whiteSpace=wrap;html=1;" vertex="1" parent="1">
          <mxGeometry x="790" y="390" width="110" height="60" as="geometry" />
        </mxCell>
        <mxCell id="RuW9NPai-BHSLDhjQ_9W-27" value="This is not issue" style="edgeStyle=orthogonalEdgeStyle;rounded=0;orthogonalLoop=1;jettySize=auto;html=1;entryX=0.5;entryY=0;entryDx=0;entryDy=0;" edge="1" parent="1" source="RuW9NPai-BHSLDhjQ_9W-29" target="RuW9NPai-BHSLDhjQ_9W-22">
          <mxGeometry x="0.0159" y="-20" relative="1" as="geometry">
            <Array as="points">
              <mxPoint x="945" y="360" />
              <mxPoint x="705" y="360" />
            </Array>
            <mxPoint as="offset" />
          </mxGeometry>
        </mxCell>
        <mxCell id="RuW9NPai-BHSLDhjQ_9W-28" style="edgeStyle=orthogonalEdgeStyle;rounded=0;orthogonalLoop=1;jettySize=auto;html=1;entryX=0;entryY=0.5;entryDx=0;entryDy=0;" edge="1" parent="1" source="RuW9NPai-BHSLDhjQ_9W-29" target="RuW9NPai-BHSLDhjQ_9W-30">
          <mxGeometry relative="1" as="geometry" />
        </mxCell>
        <mxCell id="RuW9NPai-BHSLDhjQ_9W-29" value="" style="rhombus;whiteSpace=wrap;html=1;" vertex="1" parent="1">
          <mxGeometry x="930" y="405" width="30" height="30" as="geometry" />
        </mxCell>
        <mxCell id="RuW9NPai-BHSLDhjQ_9W-30" value="&lt;div&gt;Add FW develop&lt;/div&gt;&lt;div&gt;check list&lt;br&gt;&lt;/div&gt;" style="rounded=1;whiteSpace=wrap;html=1;" vertex="1" parent="1">
          <mxGeometry x="990" y="390" width="110" height="60" as="geometry" />
        </mxCell>
        <mxCell id="RuW9NPai-BHSLDhjQ_9W-31" value="&lt;font color=&quot;#FF0000&quot;&gt;N&lt;/font&gt;" style="text;html=1;align=center;verticalAlign=middle;resizable=0;points=[];autosize=1;strokeColor=none;fillColor=none;" vertex="1" parent="1">
          <mxGeometry x="110" y="450" width="30" height="30" as="geometry" />
        </mxCell>
        <mxCell id="RuW9NPai-BHSLDhjQ_9W-32" value="&lt;font color=&quot;#FF0000&quot;&gt;N+1&lt;/font&gt;" style="text;html=1;align=center;verticalAlign=middle;resizable=0;points=[];autosize=1;strokeColor=none;fillColor=none;" vertex="1" parent="1">
          <mxGeometry x="259" y="450" width="50" height="30" as="geometry" />
        </mxCell>
        <mxCell id="RuW9NPai-BHSLDhjQ_9W-33" value="&lt;font color=&quot;#FF0000&quot;&gt;N+2&lt;/font&gt;" style="text;html=1;align=center;verticalAlign=middle;resizable=0;points=[];autosize=1;strokeColor=none;fillColor=none;" vertex="1" parent="1">
          <mxGeometry x="500" y="450" width="50" height="30" as="geometry" />
        </mxCell>
        <mxCell id="RuW9NPai-BHSLDhjQ_9W-34" value="&lt;font color=&quot;#FF0000&quot;&gt;N+3&lt;/font&gt;" style="text;html=1;align=center;verticalAlign=middle;resizable=0;points=[];autosize=1;strokeColor=none;fillColor=none;" vertex="1" parent="1">
          <mxGeometry x="650" y="450" width="50" height="30" as="geometry" />
        </mxCell>
        <mxCell id="RuW9NPai-BHSLDhjQ_9W-35" value="&lt;font color=&quot;#FF0000&quot;&gt;N+4&lt;/font&gt;" style="text;html=1;align=center;verticalAlign=middle;resizable=0;points=[];autosize=1;strokeColor=none;fillColor=none;" vertex="1" parent="1">
          <mxGeometry x="790" y="450" width="50" height="30" as="geometry" />
        </mxCell>
        <mxCell id="RuW9NPai-BHSLDhjQ_9W-36" value="&lt;font color=&quot;#FF0000&quot;&gt;N+5&lt;/font&gt;" style="text;html=1;align=center;verticalAlign=middle;resizable=0;points=[];autosize=1;strokeColor=none;fillColor=none;" vertex="1" parent="1">
          <mxGeometry x="990" y="450" width="50" height="30" as="geometry" />
        </mxCell>
      </root>
    </mxGraphModel>
  </diagram>
</mxfile>
